<svg viewBox="0 0 45 29" xmlns="http://www.w3.org/2000/svg" xmlns:xlink="http://www.w3.org/1999/xlink" width="45.000000" height="29.000000" fill="none" customFrame="#000000">
	<path id="Union" d="M42.6004 0C43.9257 1.95956e-06 45 1.10252 45 2.46314L45 26.5368C45 27.8972 43.9252 29 42.6004 29L2.39951 29C1.07434 29 8.40202e-06 27.8975 0 26.5368L0 2.46314C5.72279e-06 1.10276 1.07486 0 2.39951 0L42.6004 0ZM16.3787 4.35271C10.844 4.34543 6.34533 8.86276 6.34533 14.4057C6.34535 19.9704 10.8441 24.4804 16.3787 24.4804C18.3492 24.4804 20.2834 23.8839 21.9206 22.8C16.6395 18.4864 16.6758 10.3466 21.9206 6.03304C20.2834 4.94191 18.3492 4.35271 16.3787 4.35271ZM28.7665 4.34544C26.796 4.34545 24.8618 4.94193 23.2246 6.02577C28.4477 10.3393 28.5274 18.501 23.2246 22.7927C24.8618 23.8839 26.8105 24.4731 28.7665 24.4731C34.3011 24.4804 38.7999 19.9704 38.7999 14.4057C38.7999 8.86276 34.3012 4.34544 28.7665 4.34544ZM22.5726 6.4986C17.4871 10.5212 17.4654 18.3264 22.5726 22.3199C27.6799 18.3192 27.6581 10.5212 22.5726 6.4986Z" fill="rgb(164.279,164.279,164.279)" fill-rule="evenodd" />
</svg>
