<svg viewBox="0 0 46 29" xmlns="http://www.w3.org/2000/svg" xmlns:xlink="http://www.w3.org/1999/xlink" width="46.000000" height="29.000000" fill="none" customFrame="#000000">
	<path id="Union" d="M46 2.4634C46 1.10275 44.9013 0 43.5467 0L2.45252 0C1.09857 0.000159743 0 1.10308 0 2.4634L0 26.5366C0 27.8972 1.09804 28.9998 2.45252 29L43.5467 29C44.9008 29 46 27.897 46 26.5366L46 2.4634ZM23.659 12.3089C23.659 9.70423 26.1349 8.29451 28.9059 8.29451C30.6782 8.29452 31.9356 8.82553 31.9389 8.8269L31.379 11.3657C31.3647 11.3585 30.2137 10.7911 28.8051 10.7911C27.5488 10.7912 26.943 11.3334 26.943 11.8284C26.9431 12.3842 27.6463 12.75 28.4905 13.1897C29.7614 13.8517 31.3534 14.6813 31.3534 16.5777C31.3533 19.2268 28.9692 20.7055 25.9397 20.7055C23.9072 20.7055 22.3736 20.0451 22.3567 20.0378L22.9282 17.4099C22.9282 17.4099 24.2647 18.2 26.0528 18.2C27.3127 18.1999 28.0504 17.6341 28.0504 17.0023C28.0501 16.3801 27.2946 15.9807 26.4104 15.5129C25.1628 14.8528 23.6591 14.0568 23.659 12.3089ZM3.4872 8.86903L3.55491 8.48575L8.84476 8.48575C9.60846 8.48589 10.2327 8.93839 10.3559 9.73122L11.6986 16.6595L14.9909 8.48575L18.3097 8.48575L13.1858 20.5078L9.85962 20.5078L7.37903 11.1201C7.15132 10.2541 7.05458 9.97519 5.70273 9.49623C4.65287 9.07853 3.4872 8.86903 3.4872 8.86903ZM17.0405 20.5078L19.6433 8.48575L22.7985 8.48575L20.2048 20.5078L17.0405 20.5078ZM35.8274 9.58779C36.1241 8.88715 36.5285 8.48575 37.2915 8.48575L39.9579 8.48575L42.5128 20.5078L39.5846 20.5078L39.1941 18.6878L35.1519 18.6878L34.5095 20.5078L31.1916 20.5078L35.8274 9.58779ZM36.071 16.2454L38.706 16.2454L37.7225 11.7344L36.071 16.2454Z" fill="rgb(164.279,164.279,164.279)" fill-rule="evenodd" />
</svg>
