<svg viewBox="0 0 27 29" xmlns="http://www.w3.org/2000/svg" xmlns:xlink="http://www.w3.org/1999/xlink" width="27.000000" height="29.000000" fill="none" customFrame="#000000">
	<path id="Vector" d="M3.98602 8.92294C4.79396 8.92292 5.58766 8.71676 6.28735 8.32518C6.98704 7.93359 7.56807 7.37038 7.97204 6.69216L24.6986 6.69216C25.309 6.69216 25.8943 6.45713 26.3259 6.03877C26.7575 5.62042 27 5.05301 27 4.46137C27 3.86973 26.7575 3.30232 26.3259 2.88397C25.8943 2.46562 25.309 2.23059 24.6986 2.23059L7.97204 2.23059C7.56805 1.5524 6.98701 0.989228 6.28732 0.59768C5.58763 0.206132 4.79394 -4.95334e-16 3.98602 0C3.1781 -4.95334e-16 2.38441 0.206132 1.68472 0.59768C0.985035 0.989228 0.403995 1.5524 0 2.23059L3.98602 2.23059L3.98602 6.69216L0 6.69216C0.40397 7.37038 0.984999 7.93359 1.68469 8.32518C2.38438 8.71676 3.17808 8.92292 3.98602 8.92294ZM2.02063 18.6358C1.80552 18.8448 1.68469 19.128 1.68462 19.4232L1.68462 27.8846C1.68462 28.1804 1.80586 28.4641 2.02166 28.6733C2.23745 28.8825 2.53014 29 2.83532 29L6.28742 29C6.5926 29 6.88529 28.8825 7.10109 28.6733C7.31688 28.4641 7.43812 28.1804 7.43812 27.8846L7.43812 26.7692L21.2465 26.7692L21.2465 27.8846C21.2465 28.1804 21.3677 28.4641 21.5835 28.6733C21.7993 28.8825 22.092 29 22.3972 29L25.8493 29C26.1545 29 26.4472 28.8825 26.663 28.6733C26.8788 28.4641 27 28.1804 27 27.8846L27 19.4232C26.9999 19.128 26.8791 18.8448 26.664 18.6358L24.6986 16.7307L21.5825 11.6958C21.4801 11.5301 21.3351 11.3931 21.1616 11.2981C20.9881 11.203 20.7922 11.1533 20.5929 11.1537L8.09171 11.1537C7.89285 11.1537 7.69737 11.2036 7.52434 11.2986C7.35131 11.3936 7.20663 11.5305 7.10441 11.6958L3.98602 16.7307L2.02063 18.6358ZM22.7056 17.8461L5.97903 17.8461L8.74071 13.3845L19.9439 13.3845L22.7056 17.8461ZM9.73952 21.924L9.73952 22.7538C9.73952 22.9313 9.66677 23.1015 9.5373 23.227C9.40782 23.3525 9.23221 23.423 9.0491 23.423L4.67644 23.423C4.49333 23.423 4.31772 23.3525 4.18824 23.227C4.05876 23.1015 3.98602 22.9313 3.98602 22.7538L3.98602 20.8933C3.98607 20.7943 4.00879 20.6965 4.05253 20.6071C4.09628 20.5176 4.15996 20.4386 4.239 20.3759C4.31803 20.3131 4.41044 20.2682 4.50957 20.2442C4.60869 20.2203 4.71206 20.218 4.81222 20.2375L9.00077 21.0495C9.20912 21.0902 9.39653 21.1995 9.53119 21.3589C9.66584 21.5183 9.73945 21.7179 9.73952 21.924ZM24.6986 21.1655L24.6986 22.7538C24.6986 22.9313 24.6259 23.1015 24.4964 23.227C24.3669 23.3525 24.1913 23.423 24.0082 23.423L19.6355 23.423C19.4524 23.423 19.2768 23.3525 19.1473 23.227C19.0178 23.1015 18.9451 22.9313 18.9451 22.7538L18.9451 21.741C18.9452 21.5864 19.0005 21.4366 19.1016 21.3171C19.2027 21.1975 19.3434 21.1156 19.4997 21.0852L23.5962 20.291C23.7298 20.2649 23.8677 20.2679 24 20.2998C24.1323 20.3316 24.2556 20.3915 24.3611 20.4752C24.4665 20.5589 24.5515 20.6642 24.6099 20.7836C24.6683 20.9029 24.6986 21.0334 24.6986 21.1655Z" fill="rgb(76, 121, 142)" fill-rule="nonzero" />
</svg>
